#!OML:ASF X:\für Bonn\!DataBase\2005_08_11_Bastian_Final\c3d\Bastian.ASF
:FULLY-SPECIFIED
:DEGREES
172
root 0.102978 17.3665 6.15467 178.443 -9.33978 -179.773
lowerback 12.1528 -2.30293 -0.535749
upperback 5.14501 -3.66522 -0.146649
thorax -1.39942 -2.0646 0.632649
lowerneck -11.8981 -5.35534 -3.16294
upperneck -6.16525 -7.62487 10.3895
head 0.65588 -4.06779 3.59064
rclavicle 2.75317e-014 -1.21259e-014
rhumerus 71.0944 19.457 6.64737
rradius 39.3791
rwrist -52.4502
rhand -43.8677 -7.79357
rfingers 7.12502
rthumb -16.6938 -37.0957
lclavicle 2.75317e-014 -1.21259e-014
lhumerus 71.4104 -19.7681 -13.0379
lradius 31.5774
lwrist 2.17924
lhand -41.5391 12.8713
lfingers 7.12502
lthumb -14.4511 42.3481
rfemur -11.0175 3.00831 25.7519
rtibia 40.5425
rfoot -23.4607 -17.9082
rtoes 4.76759
lfemur -9.33381 0.415209 -18.7833
ltibia 32.0475
lfoot -14.4418 -7.42914
ltoes -13.4565
173
root 0.10033 17.3693 6.13261 178.472 -9.34041 -179.755
lowerback 11.7958 -2.32143 -0.512156
upperback 5.13303 -3.67359 -0.166991
thorax -1.22159 -2.06422 0.580263
lowerneck -11.7842 -5.36273 -3.17079
upperneck -6.17582 -7.62715 10.3729
head 0.632574 -4.0692 3.5894
rclavicle 2.13694e-015 -1.39149e-015
rhumerus 71.0312 19.4699 6.60444
rradius 39.3687
rwrist -52.6161
rhand -43.7536 -7.74678
rfingers 7.12502
rthumb -16.584 -37.0582
lclavicle 2.13694e-015 -1.39149e-015
lhumerus 71.4383 -19.8034 -13.1929
lradius 31.6322
lwrist 2.44206
lhand -41.5792 13.02
lfingers 7.12502
lthumb -14.4897 42.494
rfemur -10.7912 3.86128 25.9229
rtibia 40.3626
rfoot -23.6299 -18.6508
rtoes 5.10791
lfemur -9.09618 0.585934 -18.744
ltibia 31.7514
lfoot -14.436 -7.57614
ltoes -13.2996
174
root 0.0984671 17.3699 6.1105 178.46 -9.35017 -179.732
lowerback 11.5012 -2.33527 -0.5002
upperback 5.11368 -3.67817 -0.178661
thorax -1.08376 -2.06223 0.546552
lowerneck -11.6331 -5.36466 -3.16181
upperneck -6.20476 -7.62222 10.34
head 0.594744 -4.06846 3.58117
rclavicle 1.9133e-014 -3.97569e-016
rhumerus 70.9903 19.4882 6.78402
rradius 39.4481
rwrist -53.0225
rhand -43.7103 -7.66893
rfingers 7.12502
rthumb -16.5423 -36.9838
lclavicle 1.9133e-014 -3.97569e-016
lhumerus 71.3487 -19.8106 -12.6034
lradius 31.466
lwrist 2.07012
lhand -41.543 12.9424
lfingers 7.12502
lthumb -14.4549 42.419
rfemur -10.5594 4.65688 26.1047
rtibia 40.2356
rfoot -23.8218 -19.4067
rtoes 5.21429
lfemur -8.85076 0.800873 -18.6894
ltibia 31.5169
lfoot -14.4225 -7.77737
ltoes -13.1581
175
root 0.0963856 17.3697 6.09111 178.463 -9.3503 -179.754
lowerback 11.2079 -2.34482 -0.523028
upperback 5.10224 -3.68221 -0.202972
thorax -0.936938 -2.06092 0.518917
lowerneck -11.489 -5.36963 -3.18729
upperneck -6.24066 -7.61872 10.3417
head 0.559331 -4.06832 3.59125
rclavicle -6.43068e-014 1.39149e-014
rhumerus 70.9925 19.4658 7.14759
rradius 39.5976
rwrist -53.6149
rhand -43.7427 -7.65074
rfingers 7.12502
rthumb -16.5735 -36.963
lclavicle -6.43068e-014 1.39149e-014
lhumerus 71.1765 -19.7966 -11.7625
lradius 31.2648
lwrist 1.49111
lhand -41.5242 12.8556
lfingers 7.12502
lthumb -14.4368 42.3335
rfemur -10.3838 5.33788 26.2088
rtibia 40.152
rfoot -23.9923 -19.9995
rtoes 5.49275
lfemur -8.66344 1.14361 -18.6737
ltibia 31.3417
lfoot -14.3818 -8.08869
ltoes -12.7269
176
root 0.0947746 17.368 6.07318 178.442 -9.36807 -179.751
lowerback 10.9642 -2.35252 -0.51845
upperback 5.08484 -3.68164 -0.222243
thorax -0.824428 -2.05697 0.483641
lowerneck -11.2873 -5.37819 -3.16808
upperneck -6.34069 -7.62308 10.3021
head 0.489398 -4.07716 3.58099
rclavicle -3.00165e-014 1.64991e-014
rhumerus 71.0124 19.4579 7.7141
rradius 39.7965
rwrist -54.3778
rhand -43.8364 -7.58984
rfingers 7.12502
rthumb -16.6637 -36.8946
lclavicle -3.00165e-014 1.64991e-014
lhumerus 71.0768 -19.8043 -11.1071
lradius 31.1123
lwrist 1.03921
lhand -41.5479 12.918
lfingers 7.12502
lthumb -14.4596 42.3942
rfemur -10.2194 5.82141 26.3176
rtibia 40.0988
rfoot -24.1244 -20.4645
rtoes 5.53408
lfemur -8.49276 1.5523 -18.6154
ltibia 31.2094
lfoot -14.3286 -8.50469
ltoes -12.4078
177
root 0.093806 17.3663 6.05667 178.43 -9.36798 -179.728
lowerback 10.7328 -2.36154 -0.508008
upperback 5.06306 -3.68197 -0.222139
thorax -0.722021 -2.05348 0.466004
lowerneck -11.1138 -5.38209 -3.19204
upperneck -6.4261 -7.61729 10.2801
head 0.431308 -4.07886 3.5846
rclavicle -1.49089e-015 -7.15625e-015
rhumerus 71.066 19.4754 8.17521
rradius 39.9498
rwrist -54.9653
rhand -43.9701 -7.5836
rfingers 7.12502
rthumb -16.7924 -36.8774
lclavicle -1.49089e-015 -7.15625e-015
lhumerus 71.0459 -19.849 -10.8698
lradius 31.0745
lwrist 1.04634
lhand -41.6406 13.0272
lfingers 7.12502
lthumb -14.5489 42.497
rfemur -10.0986 6.28237 26.439
rtibia 40.0727
rfoot -24.2591 -20.8925
rtoes 5.70813
lfemur -8.36103 2.01503 -18.5255
ltibia 31.1114
lfoot -14.2616 -8.95559
ltoes -12.0242
178
root 0.0933877 17.364 6.0407 178.387 -9.39241 -179.723
lowerback 10.5381 -2.37105 -0.525615
upperback 5.05061 -3.68806 -0.2193
thorax -0.627767 -2.05426 0.469105
lowerneck -10.8983 -5.3824 -3.21482
upperneck -6.55653 -7.60553 10.2468
head 0.350327 -4.08034 3.58653
rclavicle 2.78299e-015 3.57812e-015
rhumerus 71.085 19.523 8.43755
rradius 40.0154
rwrist -55.299
rhand -44.034 -7.54415
rfingers 7.12502
rthumb -16.8539 -36.8328
lclavicle 2.78299e-015 3.57812e-015
lhumerus 71.0166 -19.9123 -10.644
lradius 31.047
lwrist 1.02646
lhand -41.7327 13.1705
lfingers 7.12502
lthumb -14.6376 42.6339
rfemur -9.96749 6.59333 26.5217
rtibia 40.0584
rfoot -24.3751 -21.1896
rtoes 5.92517
lfemur -8.22829 2.54783 -18.4435
ltibia 31.0511
lfoot -14.1467 -9.47621
ltoes -11.6077
